# xmcd
#
# Track frame offsets: 
#        182
#        21845
#        40300
#        60935
#        85885
#        104800
#        126007
#        147115
#        168180
#        193090
#        211240
#        235227
#        253987
#        271425
#        290240
#        310990
#
# Disc length: 4385 seconds
#
# Revision: 17
# Processed by: cddbd v1.5.1PL0 Copyright (c) Steve Scherf et al.
# Submitted via: ExactAudioCopy v0.95b2
#
DISCID=f1111f10
DTITLE=Celine Dion - All The Way... A Decade Of Song
DYEAR=1999
DGENRE=Pop
TTITLE0=The Power Of Love
TTITLE1=Beauty And the Beast (Duet with Peabo Bryson)
TTITLE2=Because You Loved Me (Theme from 'Up Close and Personal')
TTITLE3=It's All Coming Back To Me Now
TTITLE4=Immortality
TTITLE5=To Love You More
TTITLE6=My Heart Will Go On (Love Theme from 'Titanic')
TTITLE7=Be The Man
TTITLE8=I'm Your Angel (Duet with R. Kelly)
TTITLE9=That's The Way It Is
TTITLE10=If Walls Could Talk
TTITLE11=The First Time Ever I Saw Your Face
TTITLE12=All The Way (Duet with Frank Sinatra)
TTITLE13=Then You Look At Me
TTITLE14=I Want You To Need Me
TTITLE15=Live For The One I Love
EXTD=YEAR: 1999 ID3G: 13
EXTT0=
EXTT1=
EXTT2=
EXTT3=
EXTT4=
EXTT5=
EXTT6=
EXTT7=
EXTT8=
EXTT9=
EXTT10=
EXTT11=
EXTT12=
EXTT13=
EXTT14=
EXTT15=
PLAYORDER=
